
<global>
ampeg_attack=0.005
ampeg_decay=0.1
ampeg_hold=0.2
ampeg_release=0.1
ampeg_sustain=0
</global>

<group>
group_label=RR1
seq_length=4
seq_position=1

<region>
hikey=B2
hivel=127
lokey=A#2
lovel=0
offset=5685
pitch_keycenter=A#2
sample=Taylornylon3_Muted_MP_A#2_RR1.opus
volume=+5.59
</region>

<region>
hikey=B3
hivel=127
lokey=A#3
lovel=0
offset=7321
pitch_keycenter=A#3
sample=Taylornylon3_Muted_MP_A#3_RR1.opus
volume=+1.86
</region>

<region>
hikey=B4
hivel=127
lokey=A#4
lovel=0
offset=7392
pitch_keycenter=A#4
sample=Taylornylon3_Muted_MP_A#4_RR1.opus
volume=+11.45
</region>

<region>
hikey=C#3
hivel=127
lokey=C3
lovel=0
offset=7806
pitch_keycenter=C3
sample=Taylornylon3_Muted_MP_C3_RR1.opus
volume=+4.75
</region>

<region>
hikey=C#4
hivel=127
lokey=C4
lovel=0
offset=6752
sample=Taylornylon3_Muted_MP_C4_RR1.opus
volume=+6.96
</region>

<region>
hikey=C#5
hivel=127
lokey=C5
lovel=0
offset=5014
pitch_keycenter=C5
sample=Taylornylon3_Muted_MP_C5_RR1.opus
volume=+11.60
</region>

<region>
hikey=D#2
hivel=127
lokey=C2
lovel=0
offset=8824
pitch_keycenter=D2
sample=Taylornylon3_Muted_MP_D2_RR1.opus
volume=+6.93
</region>

<region>
hikey=D#3
hivel=127
lokey=D3
lovel=0
offset=7558
pitch_keycenter=D3
sample=Taylornylon3_Muted_MP_D3_RR1.opus
volume=+1.78
</region>

<region>
hikey=D#4
hivel=127
lokey=D4
lovel=0
offset=10014
pitch_keycenter=D4
sample=Taylornylon3_Muted_MP_D4_RR1.opus
volume=+10.74
</region>

<region>
hikey=D#5
hivel=127
lokey=D5
lovel=0
offset=6220
pitch_keycenter=D5
sample=Taylornylon3_Muted_MP_D5_RR1.opus
volume=+9.64
</region>

<region>
hikey=F2
hivel=127
lokey=E2
lovel=0
offset=6710
pitch_keycenter=E2
sample=Taylornylon3_Muted_MP_E2_RR1.opus
volume=+7.36
</region>

<region>
hikey=F3
hivel=127
lokey=E3
lovel=0
offset=5654
pitch_keycenter=E3
sample=Taylornylon3_Muted_MP_E3_RR1.opus
volume=+6.72
</region>

<region>
hikey=F4
hivel=127
lokey=E4
lovel=0
offset=6171
pitch_keycenter=E4
sample=Taylornylon3_Muted_MP_E4_RR1.opus
volume=+11.27
</region>

<region>
end=17078
hikey=F5
hivel=127
lokey=E5
lovel=0
offset=8303
pitch_keycenter=E5
sample=Taylornylon3_Muted_MP_E5_RR1.opus
volume=+9.79
</region>

<region>
hikey=G2
hivel=127
lokey=F#2
lovel=0
offset=3790
pitch_keycenter=F#2
sample=Taylornylon3_Muted_MP_F#2_RR1.opus
volume=+0.07
</region>

<region>
hikey=G3
hivel=127
lokey=F#3
lovel=0
offset=7206
pitch_keycenter=F#3
sample=Taylornylon3_Muted_MP_F#3_RR1.opus
volume=+0.62
</region>

<region>
end=26641
hikey=G4
hivel=127
lokey=F#4
lovel=0
offset=4985
pitch_keycenter=F#4
sample=Taylornylon3_Muted_MP_F#4_RR1.opus
volume=+8.20
</region>

<region>
hikey=G5
hivel=127
lokey=F#5
lovel=0
offset=5417
pitch_keycenter=F#5
sample=Taylornylon3_Muted_MP_F#5_RR1.opus
volume=+7.98
</region>

<region>
hikey=A2
hivel=127
lokey=G#2
lovel=0
offset=3900
pitch_keycenter=G#2
sample=Taylornylon3_Muted_MP_G#2_RR1.opus
volume=+2.80
</region>

<region>
hikey=A3
hivel=127
lokey=G#3
lovel=0
offset=5250
pitch_keycenter=G#3
sample=Taylornylon3_Muted_MP_G#3_RR1.opus
volume=+0.58
</region>

<region>
hikey=A4
hivel=127
lokey=G#4
lovel=0
offset=8452
pitch_keycenter=G#4
sample=Taylornylon3_Muted_MP_G#4_RR1.opus
volume=+8.40
</region>

<region>
hikey=C6
hivel=127
lokey=G#5
lovel=0
offset=9554
pitch_keycenter=G#5
sample=Taylornylon3_Muted_MP_G#5_RR1.opus
volume=+17.78
</region>
</group>

<group>
group_label=RR2
seq_length=4
seq_position=2

<region>
hikey=B2
hivel=127
lokey=A#2
lovel=0
offset=8380
pitch_keycenter=A#2
sample=Taylornylon3_Muted_MP_A#2_RR2.opus
volume=+5.65
</region>

<region>
hikey=B3
hivel=127
lokey=A#3
lovel=0
offset=8145
pitch_keycenter=A#3
sample=Taylornylon3_Muted_MP_A#3_RR2.opus
volume=+3.16
</region>

<region>
hikey=B4
hivel=127
lokey=A#4
lovel=0
offset=6618
pitch_keycenter=A#4
sample=Taylornylon3_Muted_MP_A#4_RR2.opus
volume=+11.45
</region>

<region>
hikey=C#3
hivel=127
lokey=C3
lovel=0
offset=9168
pitch_keycenter=C3
sample=Taylornylon3_Muted_MP_C3_RR2.opus
volume=+3.86
</region>

<region>
hikey=C#4
hivel=127
lokey=C4
lovel=0
offset=6581
sample=Taylornylon3_Muted_MP_C4_RR2.opus
volume=+6.42
</region>

<region>
hikey=C#5
hivel=127
lokey=C5
lovel=0
offset=6380
pitch_keycenter=C5
sample=Taylornylon3_Muted_MP_C5_RR2.opus
volume=+9.58
</region>

<region>
end=23101
hikey=D#2
hivel=127
lokey=C2
lovel=0
offset=10075
pitch_keycenter=D2
sample=Taylornylon3_Muted_MP_D2_RR2.opus
volume=+7.76
</region>

<region>
hikey=D#3
hivel=127
lokey=D3
lovel=0
offset=9444
pitch_keycenter=D3
sample=Taylornylon3_Muted_MP_D3_RR2.opus
volume=+1.63
</region>

<region>
hikey=D#4
hivel=127
lokey=D4
lovel=0
offset=10784
pitch_keycenter=D4
sample=Taylornylon3_Muted_MP_D4_RR2.opus
volume=+9.01
</region>

<region>
hikey=D#5
hivel=127
lokey=D5
lovel=0
offset=7629
pitch_keycenter=D5
sample=Taylornylon3_Muted_MP_D5_RR2.opus
volume=+11.77
</region>

<region>
hikey=F2
hivel=127
lokey=E2
lovel=0
offset=8847
pitch_keycenter=E2
sample=Taylornylon3_Muted_MP_E2_RR2.opus
volume=+6.47
</region>

<region>
hikey=F3
hivel=127
lokey=E3
lovel=0
offset=8332
pitch_keycenter=E3
sample=Taylornylon3_Muted_MP_E3_RR2.opus
volume=+7.43
</region>

<region>
hikey=F4
hivel=127
lokey=E4
lovel=0
offset=8008
pitch_keycenter=E4
sample=Taylornylon3_Muted_MP_E4_RR2.opus
volume=+9.97
</region>

<region>
hikey=F5
hivel=127
lokey=E5
lovel=0
offset=7947
pitch_keycenter=E5
sample=Taylornylon3_Muted_MP_E5_RR2.opus
volume=+11.26
</region>

<region>
hikey=G2
hivel=127
lokey=F#2
lovel=0
offset=8890
pitch_keycenter=F#2
sample=Taylornylon3_Muted_MP_F#2_RR2.opus
volume=+2.94
</region>

<region>
hikey=G3
hivel=127
lokey=F#3
lovel=0
offset=9485
pitch_keycenter=F#3
sample=Taylornylon3_Muted_MP_F#3_RR2.opus
volume=-0.79
</region>

<region>
end=20986
hikey=G4
hivel=127
lokey=F#4
lovel=0
offset=7476
pitch_keycenter=F#4
sample=Taylornylon3_Muted_MP_F#4_RR2.opus
volume=+9.74
</region>

<region>
hikey=G5
hivel=127
lokey=F#5
lovel=0
offset=6928
pitch_keycenter=F#5
sample=Taylornylon3_Muted_MP_F#5_RR2.opus
volume=+11.21
</region>

<region>
hikey=A2
hivel=127
lokey=G#2
lovel=0
offset=8440
pitch_keycenter=G#2
sample=Taylornylon3_Muted_MP_G#2_RR2.opus
volume=+2.59
</region>

<region>
hikey=A3
hivel=127
lokey=G#3
lovel=0
offset=8492
pitch_keycenter=G#3
sample=Taylornylon3_Muted_MP_G#3_RR2.opus
volume=+0.20
</region>

<region>
hikey=A4
hivel=127
lokey=G#4
lovel=0
offset=8223
pitch_keycenter=G#4
sample=Taylornylon3_Muted_MP_G#4_RR2.opus
volume=+9.00
</region>

<region>
end=29556
hikey=C6
hivel=127
lokey=G#5
lovel=0
offset=8300
pitch_keycenter=G#5
sample=Taylornylon3_Muted_MP_G#5_RR2.opus
volume=+12.62
</region>
</group>

<group>
group_label=RR3
seq_length=4
seq_position=3

<region>
hikey=B2
hivel=127
lokey=A#2
lovel=0
offset=8999
pitch_keycenter=A#2
sample=Taylornylon3_Muted_MP_A#2_RR3.opus
volume=+7.99
</region>

<region>
hikey=B3
hivel=127
lokey=A#3
lovel=0
offset=7028
pitch_keycenter=A#3
sample=Taylornylon3_Muted_MP_A#3_RR3.opus
volume=+2.73
</region>

<region>
hikey=B4
hivel=127
lokey=A#4
lovel=0
offset=7332
pitch_keycenter=A#4
sample=Taylornylon3_Muted_MP_A#4_RR3.opus
volume=+11.56
</region>

<region>
hikey=C#3
hivel=127
lokey=C3
lovel=0
offset=9853
pitch_keycenter=C3
sample=Taylornylon3_Muted_MP_C3_RR3.opus
volume=+4.92
</region>

<region>
hikey=C#4
hivel=127
lokey=C4
lovel=0
offset=8519
sample=Taylornylon3_Muted_MP_C4_RR3.opus
volume=+8.07
</region>

<region>
hikey=C#5
hivel=127
lokey=C5
lovel=0
offset=7529
pitch_keycenter=C5
sample=Taylornylon3_Muted_MP_C5_RR3.opus
volume=+11.02
</region>

<region>
hikey=D#2
hivel=127
lokey=C2
lovel=0
offset=7587
pitch_keycenter=D2
sample=Taylornylon3_Muted_MP_D2_RR3.opus
volume=+7.41
</region>

<region>
hikey=D#3
hivel=127
lokey=D3
lovel=0
offset=8169
pitch_keycenter=D3
sample=Taylornylon3_Muted_MP_D3_RR3.opus
volume=+1.59
</region>

<region>
hikey=D#4
hivel=127
lokey=D4
lovel=0
offset=8863
pitch_keycenter=D4
sample=Taylornylon3_Muted_MP_D4_RR3.opus
volume=+9.31
</region>

<region>
hikey=D#5
hivel=127
lokey=D5
lovel=0
offset=7704
pitch_keycenter=D5
sample=Taylornylon3_Muted_MP_D5_RR3.opus
volume=+14.68
</region>

<region>
hikey=F2
hivel=127
lokey=E2
lovel=0
offset=8407
pitch_keycenter=E2
sample=Taylornylon3_Muted_MP_E2_RR3.opus
volume=+7.00
</region>

<region>
end=20012
hikey=F3
hivel=127
lokey=E3
lovel=0
offset=7753
pitch_keycenter=E3
sample=Taylornylon3_Muted_MP_E3_RR3.opus
volume=+7.14
</region>

<region>
hikey=F4
hivel=127
lokey=E4
lovel=0
offset=9174
pitch_keycenter=E4
sample=Taylornylon3_Muted_MP_E4_RR3.opus
volume=+9.49
</region>

<region>
hikey=F5
hivel=127
lokey=E5
lovel=0
offset=6799
pitch_keycenter=E5
sample=Taylornylon3_Muted_MP_E5_RR3.opus
volume=+12.94
</region>

<region>
hikey=G2
hivel=127
lokey=F#2
lovel=0
offset=8629
pitch_keycenter=F#2
sample=Taylornylon3_Muted_MP_F#2_RR3.opus
volume=+3.75
</region>

<region>
hikey=G3
hivel=127
lokey=F#3
lovel=0
offset=9905
pitch_keycenter=F#3
sample=Taylornylon3_Muted_MP_F#3_RR3.opus
volume=+1.06
</region>

<region>
hikey=G4
hivel=127
lokey=F#4
lovel=0
offset=7858
pitch_keycenter=F#4
sample=Taylornylon3_Muted_MP_F#4_RR3.opus
volume=+10.23
</region>

<region>
hikey=G5
hivel=127
lokey=F#5
lovel=0
offset=7979
pitch_keycenter=F#5
sample=Taylornylon3_Muted_MP_F#5_RR3.opus
volume=+12.66
</region>

<region>
hikey=A2
hivel=127
lokey=G#2
lovel=0
offset=7789
pitch_keycenter=G#2
sample=Taylornylon3_Muted_MP_G#2_RR3.opus
volume=+2.31
</region>

<region>
hikey=A3
hivel=127
lokey=G#3
lovel=0
offset=8924
pitch_keycenter=G#3
sample=Taylornylon3_Muted_MP_G#3_RR3.opus
volume=+0.37
</region>

<region>
hikey=A4
hivel=127
lokey=G#4
lovel=0
offset=8085
pitch_keycenter=G#4
sample=Taylornylon3_Muted_MP_G#4_RR3.opus
volume=+12.30
</region>

<region>
hikey=C6
hivel=127
lokey=G#5
lovel=0
offset=6477
pitch_keycenter=G#5
sample=Taylornylon3_Muted_MP_G#5_RR3.opus
volume=+11.98
</region>
</group>

<group>
group_label=RR4
seq_length=4
seq_position=4

<region>
hikey=B2
hivel=127
lokey=A#2
lovel=0
offset=8633
pitch_keycenter=A#2
sample=Taylornylon3_Muted_MP_A#2_RR4.opus
volume=+6.65
</region>

<region>
end=23613
hikey=B3
hivel=127
lokey=A#3
lovel=0
offset=7860
pitch_keycenter=A#3
sample=Taylornylon3_Muted_MP_A#3_RR4.opus
volume=+2.92
</region>

<region>
hikey=B4
hivel=127
lokey=A#4
lovel=0
offset=6593
pitch_keycenter=A#4
sample=Taylornylon3_Muted_MP_A#4_RR4.opus
volume=+11.66
</region>

<region>
hikey=C#3
hivel=127
lokey=C3
lovel=0
offset=8306
pitch_keycenter=C3
sample=Taylornylon3_Muted_MP_C3_RR4.opus
volume=+6.10
</region>

<region>
hikey=C#4
hivel=127
lokey=C4
lovel=0
offset=7154
sample=Taylornylon3_Muted_MP_C4_RR4.opus
volume=+8.67
</region>

<region>
hikey=C#5
hivel=127
lokey=C5
lovel=0
offset=7693
pitch_keycenter=C5
sample=Taylornylon3_Muted_MP_C5_RR4.opus
volume=+9.82
</region>

<region>
hikey=D#2
hivel=127
lokey=C2
lovel=0
offset=9043
pitch_keycenter=D2
sample=Taylornylon3_Muted_MP_D2_RR4.opus
volume=+6.22
</region>

<region>
hikey=D#3
hivel=127
lokey=D3
lovel=0
offset=7898
pitch_keycenter=D3
sample=Taylornylon3_Muted_MP_D3_RR4.opus
volume=+2.34
</region>

<region>
hikey=D#4
hivel=127
lokey=D4
lovel=0
offset=5804
pitch_keycenter=D4
sample=Taylornylon3_Muted_MP_D4_RR4.opus
volume=+8.76
</region>

<region>
end=25117
hikey=D#5
hivel=127
lokey=D5
lovel=0
offset=7994
pitch_keycenter=D5
sample=Taylornylon3_Muted_MP_D5_RR4.opus
volume=+14.09
</region>

<region>
end=18684
hikey=F2
hivel=127
lokey=E2
lovel=0
offset=8465
pitch_keycenter=E2
sample=Taylornylon3_Muted_MP_E2_RR4.opus
volume=+6.57
</region>

<region>
hikey=F3
hivel=127
lokey=E3
lovel=0
offset=8229
pitch_keycenter=E3
sample=Taylornylon3_Muted_MP_E3_RR4.opus
volume=+8.94
</region>

<region>
hikey=F4
hivel=127
lokey=E4
lovel=0
offset=6972
pitch_keycenter=E4
sample=Taylornylon3_Muted_MP_E4_RR4.opus
volume=+6.81
</region>

<region>
end=26066
hikey=F5
hivel=127
lokey=E5
lovel=0
offset=8449
pitch_keycenter=E5
sample=Taylornylon3_Muted_MP_E5_RR4.opus
volume=+13.47
</region>

<region>
hikey=G2
hivel=127
lokey=F#2
lovel=0
offset=7612
pitch_keycenter=F#2
sample=Taylornylon3_Muted_MP_F#2_RR4.opus
volume=+3.10
</region>

<region>
hikey=G3
hivel=127
lokey=F#3
lovel=0
offset=9936
pitch_keycenter=F#3
sample=Taylornylon3_Muted_MP_F#3_RR4.opus
volume=+0.63
</region>

<region>
hikey=G4
hivel=127
lokey=F#4
lovel=0
offset=8265
pitch_keycenter=F#4
sample=Taylornylon3_Muted_MP_F#4_RR4.opus
volume=+8.28
</region>

<region>
end=24672
hikey=G5
hivel=127
lokey=F#5
lovel=0
offset=7042
pitch_keycenter=F#5
sample=Taylornylon3_Muted_MP_F#5_RR4.opus
volume=+10.75
</region>

<region>
hikey=A2
hivel=127
lokey=G#2
lovel=0
offset=9549
pitch_keycenter=G#2
sample=Taylornylon3_Muted_MP_G#2_RR4.opus
volume=+1.57
</region>

<region>
hikey=A3
hivel=127
lokey=G#3
lovel=0
offset=8398
pitch_keycenter=G#3
sample=Taylornylon3_Muted_MP_G#3_RR4.opus
volume=-0.07
</region>

<region>
hikey=A4
hivel=127
lokey=G#4
lovel=0
offset=7956
pitch_keycenter=G#4
sample=Taylornylon3_Muted_MP_G#4_RR4.opus
volume=+11.93
</region>

<region>
hikey=C6
hivel=127
lokey=G#5
lovel=0
offset=6376
pitch_keycenter=G#5
sample=Taylornylon3_Muted_MP_G#5_RR4.opus
volume=+8.77
</region>
</group>